<?xml version="1.0" standalone="no"?><!DOCTYPE svg PUBLIC "-//W3C//DTD SVG 1.1//EN" "http://www.w3.org/Graphics/SVG/1.1/DTD/svg11.dtd"><svg t="1651045722719" class="icon" viewBox="0 0 1024 1024" version="1.1" xmlns="http://www.w3.org/2000/svg" p-id="1409" xmlns:xlink="http://www.w3.org/1999/xlink" width="200" height="200"><defs><style type="text/css"></style></defs><path d="M800.448528 239.074004l-130.708947 0 0-32.677237c0-55.552224-42.48051-98.032734-98.032734-98.032734l-130.708947 0c-55.5512 0-98.031711 42.48051-98.031711 98.032734l0 32.677237-130.708947 0c-19.606547 0-32.677237 13.07069-32.677237 32.67826 0 19.606547 13.07069 32.677237 32.677237 32.677237l130.708947 0 326.774415 0 130.708947 0c19.606547 0 32.677237-13.07069 32.677237-32.677237C833.125765 252.145717 820.055075 239.074004 800.448528 239.074004zM408.319639 239.074004l0-32.677237c0-19.606547 13.07069-32.67826 32.677237-32.67826l130.708947 0c19.606547 0 32.67826 13.07069 32.67826 32.67826l0 32.677237L408.319639 239.074004z" p-id="1410"></path><path d="M735.094054 369.783974l-457.483362 0c-19.606547 0-32.677237 13.07069-32.677237 32.67826l0 457.482339c0 19.606547 13.07069 32.67826 32.677237 32.67826l457.483362 0c19.606547 0 32.677237-13.07069 32.677237-32.67826l0-457.482339C767.771291 382.854665 754.699578 369.783974 735.094054 369.783974zM473.675136 729.235626c0 19.606547-13.07069 32.67826-32.67826 32.67826-19.606547 0-32.677237-13.07069-32.677237-32.67826l0-196.064444c0-19.606547 13.07069-32.677237 32.677237-32.677237 19.606547 0 32.67826 13.07069 32.67826 32.677237L473.675136 729.235626zM604.384084 729.235626c0 19.606547-13.07069 32.67826-32.67826 32.67826-19.606547 0-32.677237-13.07069-32.677237-32.67826l0-196.064444c0-19.606547 13.07069-32.677237 32.677237-32.677237 19.606547 0 32.67826 13.07069 32.67826 32.677237L604.384084 729.235626z" p-id="1411"></path></svg>